<svg width="800" height="800" viewBox="0 0 800 800" fill="none" xmlns="http://www.w3.org/2000/svg">
<rect x="48" y="281" width="213" height="413" rx="30" fill="#0DA5E9" fill-opacity="0.3"/>
<rect x="534" y="281" width="213" height="413" rx="30" fill="#0DA5E9" fill-opacity="0.3"/>
<path d="M688.581 426.587L435.358 679.81C425.976 689.174 413.262 694.434 400.006 694.434C386.751 694.434 374.037 689.174 364.655 679.81L104.938 420.093C86.9174 402.087 72.7567 380.597 63.3207 356.934C53.8847 333.272 49.3717 307.935 50.0571 282.469C50.7426 257.004 56.6122 231.946 67.3075 208.826C78.0028 185.705 93.2991 165.008 112.262 147.998C185.016 82.3241 303.669 88.4521 376.569 161.426L400.006 184.839L429.938 154.907C448.003 137.018 469.48 122.944 493.093 113.52C516.705 104.096 541.971 99.5145 567.389 100.049C592.882 100.637 617.981 106.458 641.131 117.151C664.28 127.843 684.984 143.179 701.96 162.207C767.536 235.01 761.53 353.613 688.581 426.587Z" fill="#0DA5E9"/>
</svg>
